<mxfile host="app.diagrams.net" agent="Mozilla/5.0 (Windows NT 10.0; Win64; x64) AppleWebKit/537.36 (KHTML, like Gecko) Chrome/140.0.0.0 Safari/537.36" version="28.2.5">
  <diagram id="pvwtqSuVb8uTLMzKNvCk" name="Page-1">
    <mxGraphModel dx="683" dy="749" grid="1" gridSize="10" guides="1" tooltips="1" connect="1" arrows="1" fold="1" page="1" pageScale="1" pageWidth="850" pageHeight="1100" math="0" shadow="0">
      <root>
        <mxCell id="0" />
        <mxCell id="1" parent="0" />
        <mxCell id="dh9TCy0nGteNeqj7e5UI-1" value="&lt;font style=&quot;font-size: 18px;&quot;&gt;ADMIN&lt;/font&gt;" style="html=1;dashed=0;whiteSpace=wrap;" parent="1" vertex="1">
          <mxGeometry x="100" y="480" width="160" height="110" as="geometry" />
        </mxCell>
        <mxCell id="bWhr_Hhc0WYUFxXf3tS--1" value="" style="html=1;dashed=0;whiteSpace=wrap;" parent="1" vertex="1">
          <mxGeometry x="600" y="270" width="160" height="100" as="geometry" />
        </mxCell>
        <mxCell id="bWhr_Hhc0WYUFxXf3tS--2" value="" style="html=1;dashed=0;whiteSpace=wrap;" parent="1" vertex="1">
          <mxGeometry x="640" y="560" width="160" height="100" as="geometry" />
        </mxCell>
        <mxCell id="bWhr_Hhc0WYUFxXf3tS--3" value="" style="shape=ellipse;html=1;dashed=0;whiteSpace=wrap;aspect=fixed;perimeter=ellipsePerimeter;" parent="1" vertex="1">
          <mxGeometry x="370" y="425" width="190" height="190" as="geometry" />
        </mxCell>
        <mxCell id="bWhr_Hhc0WYUFxXf3tS--5" value="&lt;font style=&quot;font-size: 18px;&quot;&gt;HALLMATE SYSTEM&lt;/font&gt;" style="text;html=1;align=center;verticalAlign=middle;whiteSpace=wrap;rounded=0;" parent="1" vertex="1">
          <mxGeometry x="435" y="505" width="60" height="30" as="geometry" />
        </mxCell>
        <mxCell id="bWhr_Hhc0WYUFxXf3tS--6" value="&lt;font style=&quot;font-size: 18px;&quot;&gt;STUDENT&lt;/font&gt;" style="text;html=1;align=center;verticalAlign=middle;whiteSpace=wrap;rounded=0;" parent="1" vertex="1">
          <mxGeometry x="650" y="305" width="60" height="30" as="geometry" />
        </mxCell>
        <mxCell id="bWhr_Hhc0WYUFxXf3tS--9" value="&lt;font style=&quot;font-size: 18px;&quot;&gt;FACULTY&lt;/font&gt;" style="text;html=1;align=center;verticalAlign=middle;whiteSpace=wrap;rounded=0;" parent="1" vertex="1">
          <mxGeometry x="690" y="590" width="60" height="30" as="geometry" />
        </mxCell>
        <mxCell id="bWhr_Hhc0WYUFxXf3tS--10" value="" style="endArrow=classic;html=1;rounded=0;exitX=1;exitY=0.25;exitDx=0;exitDy=0;" parent="1" source="dh9TCy0nGteNeqj7e5UI-1" edge="1">
          <mxGeometry width="50" height="50" relative="1" as="geometry">
            <mxPoint x="280" y="490" as="sourcePoint" />
            <mxPoint x="370" y="505" as="targetPoint" />
          </mxGeometry>
        </mxCell>
        <mxCell id="bWhr_Hhc0WYUFxXf3tS--12" value="" style="endArrow=classic;html=1;rounded=0;exitX=0.053;exitY=0.737;exitDx=0;exitDy=0;exitPerimeter=0;entryX=1;entryY=0.75;entryDx=0;entryDy=0;" parent="1" source="bWhr_Hhc0WYUFxXf3tS--3" target="dh9TCy0nGteNeqj7e5UI-1" edge="1">
          <mxGeometry width="50" height="50" relative="1" as="geometry">
            <mxPoint x="330" y="710" as="sourcePoint" />
            <mxPoint x="250" y="570" as="targetPoint" />
          </mxGeometry>
        </mxCell>
        <mxCell id="bWhr_Hhc0WYUFxXf3tS--13" value="" style="endArrow=classic;html=1;rounded=0;entryX=0;entryY=1;entryDx=0;entryDy=0;exitX=0.921;exitY=0.218;exitDx=0;exitDy=0;exitPerimeter=0;" parent="1" source="bWhr_Hhc0WYUFxXf3tS--3" target="bWhr_Hhc0WYUFxXf3tS--1" edge="1">
          <mxGeometry width="50" height="50" relative="1" as="geometry">
            <mxPoint x="400" y="323" as="sourcePoint" />
            <mxPoint x="510" y="320" as="targetPoint" />
          </mxGeometry>
        </mxCell>
        <mxCell id="bWhr_Hhc0WYUFxXf3tS--14" value="" style="endArrow=classic;html=1;rounded=0;exitX=-0.016;exitY=0.659;exitDx=0;exitDy=0;entryX=0.579;entryY=0;entryDx=0;entryDy=0;entryPerimeter=0;exitPerimeter=0;" parent="1" source="bWhr_Hhc0WYUFxXf3tS--1" target="bWhr_Hhc0WYUFxXf3tS--3" edge="1">
          <mxGeometry width="50" height="50" relative="1" as="geometry">
            <mxPoint x="350" y="380" as="sourcePoint" />
            <mxPoint x="430" y="280" as="targetPoint" />
          </mxGeometry>
        </mxCell>
        <mxCell id="bWhr_Hhc0WYUFxXf3tS--15" value="" style="endArrow=classic;html=1;rounded=0;exitX=1;exitY=1;exitDx=0;exitDy=0;entryX=0;entryY=0.75;entryDx=0;entryDy=0;" parent="1" source="bWhr_Hhc0WYUFxXf3tS--3" target="bWhr_Hhc0WYUFxXf3tS--2" edge="1">
          <mxGeometry width="50" height="50" relative="1" as="geometry">
            <mxPoint x="440" y="933" as="sourcePoint" />
            <mxPoint x="550" y="930" as="targetPoint" />
          </mxGeometry>
        </mxCell>
        <mxCell id="bWhr_Hhc0WYUFxXf3tS--16" value="" style="endArrow=classic;html=1;rounded=0;exitX=0;exitY=0.25;exitDx=0;exitDy=0;entryX=1.011;entryY=0.568;entryDx=0;entryDy=0;entryPerimeter=0;" parent="1" source="bWhr_Hhc0WYUFxXf3tS--2" target="bWhr_Hhc0WYUFxXf3tS--3" edge="1">
          <mxGeometry width="50" height="50" relative="1" as="geometry">
            <mxPoint x="450" y="790" as="sourcePoint" />
            <mxPoint x="540" y="650" as="targetPoint" />
          </mxGeometry>
        </mxCell>
        <mxCell id="bWhr_Hhc0WYUFxXf3tS--19" value="REQUEST" style="text;html=1;align=center;verticalAlign=middle;whiteSpace=wrap;rounded=0;" parent="1" vertex="1">
          <mxGeometry x="290" y="480" width="60" height="30" as="geometry" />
        </mxCell>
        <mxCell id="bWhr_Hhc0WYUFxXf3tS--20" value="REQUEST" style="text;html=1;align=center;verticalAlign=middle;whiteSpace=wrap;rounded=0;rotation=-40;" parent="1" vertex="1">
          <mxGeometry x="490" y="350" width="60" height="30" as="geometry" />
        </mxCell>
        <mxCell id="bWhr_Hhc0WYUFxXf3tS--21" value="REQUEST" style="text;html=1;align=center;verticalAlign=middle;whiteSpace=wrap;rounded=0;rotation=35;" parent="1" vertex="1">
          <mxGeometry x="580" y="530" width="60" height="30" as="geometry" />
        </mxCell>
        <mxCell id="bWhr_Hhc0WYUFxXf3tS--22" value="RESPONSE" style="text;html=1;align=center;verticalAlign=middle;whiteSpace=wrap;rounded=0;" parent="1" vertex="1">
          <mxGeometry x="300" y="570" width="60" height="30" as="geometry" />
        </mxCell>
        <mxCell id="bWhr_Hhc0WYUFxXf3tS--24" value="RESPONSE" style="text;html=1;align=center;verticalAlign=middle;whiteSpace=wrap;rounded=0;rotation=25;" parent="1" vertex="1">
          <mxGeometry x="540" y="620" width="60" height="30" as="geometry" />
        </mxCell>
        <mxCell id="bWhr_Hhc0WYUFxXf3tS--26" value="RESPONSE" style="text;html=1;align=center;verticalAlign=middle;whiteSpace=wrap;rounded=0;rotation=-60;" parent="1" vertex="1">
          <mxGeometry x="559.99850753721" y="420.00316465777075" width="60" height="30" as="geometry" />
        </mxCell>
      </root>
    </mxGraphModel>
  </diagram>
</mxfile>
